<?xml version="1.0" encoding="utf-8"?>
<!-- Generator: Adobe Illustrator 19.0.0, SVG Export Plug-In . SVG Version: 6.00 Build 0)  -->
<svg version="1.1" id="Layer_1" xmlns="http://www.w3.org/2000/svg" xmlns:xlink="http://www.w3.org/1999/xlink" x="0px" y="0px"
	 viewBox="0 0 96 96" style="enable-background:new 0 0 96 96; fill: #fc0" xml:space="preserve">
<g id="XMLID_1_">
	<path id="XMLID_10_"  d="M50,60.5c-0.1-1.1-1-1.9-2.1-1.9c-1,0-1.9,0.7-2.1,1.7l-2.1,10.4c-0.1,0.3-0.1,0.6-0.1,0.9
		c0,2.3,1.9,4,4.2,4c2.3,0,4.2-1.6,4.2-4c0-0.4-0.1-0.8-0.1-1.1L50,60.5z M65.6,65.2c-0.2-0.2-0.4-0.4-0.7-0.5L57,59
		c-0.8-0.5-1.6-0.5-2.2,0.1c-0.5,0.5-0.6,1.4-0.2,2l5.9,8.2c0.1,0.2,0.3,0.4,0.4,0.6c1,1.2,3.3,1.3,4.6,0
		C66.8,68.5,66.8,66.2,65.6,65.2L65.6,65.2z M71.7,56.5h-7.9c-0.5,0-1,0.3-1.1,0.8c-0.1,0.5,0.2,0.9,0.6,1.2h0l7.6,2.4
		c1.1,0.3,2.3-0.7,2.3-2C73.4,57.3,72.8,56.5,71.7,56.5z M32.6,58.4c0.4-0.2,0.7-0.7,0.6-1.2c-0.1-0.5-0.5-0.8-1.1-0.8h-7.9
		c-1,0-1.6,1.1-1.6,2.3c0,1.2,1.2,2.3,2.3,2L32.6,58.4L32.6,58.4L32.6,58.4z M39,58.9l-7.9,5.7c-0.2,0.1-0.5,0.3-0.7,0.5
		c-1.3,1.3-1.3,3.3,0,4.6c1.3,1.3,3.3,1.3,4.6,0c0.2-0.2,0.3-0.4,0.4-0.6l5.9-8.1c0.4-0.7,0.3-1.5-0.2-2
		C40.6,58.5,39.6,58.4,39,58.9L39,58.9z M61.6,32.5c0-7.6-9.6-12-12.7-12c1.6,10.7-13.4,14.9-14.8,24c-1.4,9,6.3,12,6.3,12
		c2.2-7.5,9.6-10,14.5-13.2C60.3,39.8,61.6,36.5,61.6,32.5z M61.6,48.5c0.7-1.9,0.3-6.5-0.4-8.4c-1.2,2.3-3.5,4.3-6.2,6.1
		c-1.1,0.7-2.8,1.4-3.9,2.1c-2.5,1.4-4.5,2.7-6.1,4.5c1.5,2.2,4.1,3.7,6.1,3.7C55.8,56.5,59.5,54.7,61.6,48.5z"/>
	<path id="XMLID_11_" d="M35.5,36.9c1.5-2,3.3-3.1,5.1-4.8c1.8-1.7,2.9-2.8,3.6-4.1c-1.4-2.7-4.1-3.7-5.9-3.5c0.3,3.8-4,5.8-4.2,8.6
		C33.9,34.7,34.8,36.4,35.5,36.9L35.5,36.9z"/>
</g>
</svg>
